<svg xmlns="http://www.w3.org/2000/svg" viewBox="0 0 900 500">
<defs><linearGradient id="g" x1="0" y1="0" x2="1" y2="1"><stop offset="0%" stop-color="#fff0a8"/><stop offset="45%" stop-color="#f5c400"/><stop offset="100%" stop-color="#a46f00"/></linearGradient></defs>
<rect width="900" height="500" fill="#111111"/>
<circle cx="720" cy="95" r="70" fill="#f5c400" opacity=".18"/>
<path d="M100 380C220 300 315 335 420 270C545 194 660 230 808 150V500H100Z" fill="#fff" opacity=".06"/>
<g transform="translate(168 290)">
<path d="M45 92L112 28C128 12 148 5 170 8L396 40C434 46 465 73 480 109L496 150H40C18 150 0 132 0 110C0 100 8 92 20 92Z" fill="url(#g)"/>
<path d="M150 30L112 92H270L254 46Z" fill="#fff" opacity=".86"/>
<path d="M282 50L300 92H446C434 66 410 55 382 51Z" fill="#fff" opacity=".86"/>
<rect x="210" y="-20" width="96" height="38" rx="10" fill="#fff"/>
<text x="258" y="5" text-anchor="middle" font-size="20" font-family="Arial" font-weight="900" fill="#111">TAXI</text>
<circle cx="120" cy="150" r="44" fill="#111"/>
<circle cx="120" cy="150" r="18" fill="#fff"/>
<circle cx="402" cy="150" r="44" fill="#111"/>
<circle cx="402" cy="150" r="18" fill="#fff"/>
<path d="M24 98h456" stroke="#111" stroke-width="13" stroke-linecap="round" opacity=".82"/>
</g>
</svg>